<svg width="33" height="46" viewBox="0 0 33 46" fill="none" xmlns="http://www.w3.org/2000/svg">
<path d="M28.5996 17.96L27.4404 20.2803C28.2936 21.0002 29.0665 21.9737 29.7598 23.2002C30.4531 24.4002 31.0004 25.7603 31.4004 27.2803C31.827 28.7735 32.04 30.3334 32.04 31.96C32.04 33.5599 31.8404 35.1599 31.4404 36.7598C31.0404 38.3331 30.3995 39.7734 29.5195 41.0801C28.6662 42.3866 27.5333 43.4269 26.1201 44.2002C24.7068 44.9735 22.9866 45.3604 20.96 45.3604C19.2 45.3603 17.5734 44.9066 16.0801 44C14.6134 43.0667 13.4262 41.72 12.5195 39.96C11.6397 38.2001 11.2002 36.0402 11.2002 33.4805C11.2002 31.8005 11.4667 30.0668 12 28.2803C12.4338 26.8964 13.0835 25.5763 13.9492 24.3203C14.108 24.8122 14.2665 25.2931 14.4258 25.7627L14.4316 25.7773L14.4365 25.793C14.8095 26.8373 15.1644 27.7637 15.498 28.5674C15.1924 29.7324 15.04 30.9969 15.04 32.3604C15.0401 34.3867 15.3601 36.1331 16 37.5996C16.6666 39.0395 17.5197 40.1466 18.5596 40.9199C19.6262 41.6666 20.76 42.04 21.96 42.04C23.64 41.9867 25.0402 41.533 26.1602 40.6797C27.2799 39.8265 28.1063 38.7067 28.6396 37.3203C29.1996 35.9336 29.4805 34.4131 29.4805 32.7598C29.4804 31.5332 29.32 30.1729 29 28.6797C28.68 27.1865 28.1861 25.7335 27.5195 24.3203C26.8795 22.8803 26.0667 21.6664 25.0801 20.6797C23.0841 20.9692 21.3974 21.5161 20.0195 22.3193C19.8664 21.5927 19.7157 20.8442 19.5664 20.0742L19.4385 19.3994C19.5836 19.3187 19.7306 19.2386 19.8799 19.1602C22.0399 18.0402 24.72 17.3066 27.9199 16.96L28.5996 17.96ZM17.6211 20.5498C17.8297 21.6222 18.0431 22.6543 18.2598 23.6465C17.9644 23.9325 17.6898 24.2354 17.4404 24.5596C17.1246 24.9702 16.8404 25.4014 16.5869 25.8525C16.4999 25.6163 16.4104 25.3723 16.3203 25.1201C16.0308 24.2668 15.7418 23.3741 15.4521 22.4424C16.0897 21.7634 16.8128 21.1328 17.6211 20.5498Z" fill="#80C799"/>
<path d="M0.519993 29.36C0.493327 29.36 0.413327 29.3467 0.279993 29.32C0.119993 29.32 0.0399933 29.2933 0.0399933 29.24C0.573327 28.2 1.18666 26.9067 1.87999 25.36C2.57333 23.7867 3.29333 22.1067 4.03999 20.32C3.79999 20.2667 3.54666 20.2133 3.27999 20.16C3.03999 20.1067 2.78666 20.0533 2.51999 20C2.33333 19.7867 2.18666 19.48 2.07999 19.08C1.97333 18.6533 1.91999 18.3733 1.91999 18.24C1.91999 18.0533 1.95999 17.96 2.03999 17.96C2.19999 17.96 2.49333 18.0267 2.91999 18.16C3.37333 18.2933 3.98666 18.4 4.75999 18.48C5.47999 16.72 6.17333 14.9333 6.83999 13.12C7.53333 11.28 8.15999 9.51999 8.71999 7.83998C9.27999 6.13332 9.73333 4.59998 10.08 3.23998L14.48 0.919983C14.6933 0.919983 14.9867 0.98665 15.36 1.11998C15.7333 1.22665 16.0267 1.41332 16.24 1.67998C16.16 2.37332 16.1067 3.09332 16.08 3.83998C16.0533 4.55998 16.04 5.27998 16.04 5.99998C16.04 8.18665 16.16 10.3867 16.4 12.6C16.64 14.7867 16.9467 16.9067 17.32 18.96C17.6933 20.9867 18.08 22.88 18.48 24.64C18.9067 26.4 19.2933 27.9333 19.64 29.24C19.64 29.32 19.5333 29.36 19.32 29.36C18.92 29.36 18.6 29.3067 18.36 29.2C18.12 29.0933 17.92 28.9466 17.76 28.76C17.3333 27.8266 16.8533 26.6133 16.32 25.12C15.8133 23.6266 15.3067 22.0133 14.8 20.28C12.9867 20.5733 11.1467 20.72 9.27999 20.72C8.77333 20.72 8.29333 20.72 7.83999 20.72C7.38666 20.6933 6.93333 20.6667 6.47999 20.64C5.86666 21.92 5.21333 23.2267 4.51999 24.56C3.82666 25.8933 3.07999 27.2933 2.27999 28.76C2.06666 28.9466 1.81333 29.0933 1.51999 29.2C1.22666 29.3067 0.893327 29.36 0.519993 29.36ZM7.43999 18.6C8.50666 18.5733 9.61333 18.4933 10.76 18.36C11.9067 18.2267 13.0267 18 14.12 17.68C13.64 15.8667 13.2133 14.04 12.84 12.2C12.4667 10.36 12.2 8.66665 12.04 7.11998C11.2667 9.25332 10.5067 11.2533 9.75999 13.12C9.01333 14.96 8.23999 16.7866 7.43999 18.6Z" fill="black"/>
</svg>
